<svg version="1.2" xmlns="http://www.w3.org/2000/svg" viewBox="0 0 64 64" width="64" height="64"><style>.a{fill:#fff}</style><path fill-rule="evenodd" class="a" d="m22.5 5l15.5 0.2 15.5 0.3v53h-43l-0.3-20.5-0.2-20.4 6.2-6.3zm25.5 6h-22.6l-9.4 9.6v32.4h32z"/><path class="a" d="m29.7 18.6c-0.4 0.4-0.7 4.1-0.7 8.2 0 6.4-0.2 7.3-1.4 6.2-2.1-1.7-6-0.9-6.4 1.4-0.5 2.2 8.3 11.6 10.8 11.6 2.5 0 11.3-9.4 10.8-11.6-0.4-2.2-4.3-3.1-6.3-1.4-1.2 1-1.5-0.1-1.7-6.7-0.3-7-0.5-7.8-2.3-8.1-1.2-0.2-2.4 0-2.8 0.4z"/></svg>