<svg version="1.2" xmlns="http://www.w3.org/2000/svg" viewBox="0 0 464 463" width="464" height="463">
	<title>larrow-svg</title>
	<style>
		.s0 { fill: #000000 } 
	</style>
	<g id="Layer">
		<g id="Layer">
			<path id="Layer" fill-rule="evenodd" class="s0" d="m86.7 376.1c44-48.1 88.2-100.7 134.1-147.1-40.8-48.3-87.4-96-128.2-144.2-7.7-4.8-11.9-15.8-3.6-24.2 19.4-19.4 39.6-38 60.5-55.6 2.7-2.3 5.5-3.4 8.3-3.8 4.9-1.8 10.7-1.3 15.5 3.7 71.2 72.9 135.9 151.8 205.3 226.3 6.2 6.6 5.1 14.7 0.9 20.3-0.8 1.8-2.2 3.6-4.2 5.3-74 59.8-133 135-200.4 201.7-8.4 8.4-19.6 4.1-24.4-3.7-19-17.1-38.5-33.5-58.8-49-4.3-3.3-7.3-7.8-7.7-12.8-2.4-5.1-2.2-11.5 2.7-16.9zm31.7 11.3c15.5 12.2 30.8 24.8 45.7 37.8 60.4-61.4 115-128.7 181.3-184-62.2-67.6-121.1-138.3-184.8-204.5-13.1 11.3-25.9 23-38.3 35 41.4 48.8 88.6 97.1 129.8 146.1 5.4 6.5 4.6 14.3 0.8 19.9-0.6 2.5-1.9 5.1-4.2 7.4-45.1 44.4-88.3 95.1-130.3 142.3z"/>
		</g>
	</g>
</svg>